<svg width="72" height="40" viewBox="0 0 72 40" fill="none" xmlns="http://www.w3.org/2000/svg">
<g clip-path="url(#clip0_9_92)">
<path d="M71.9944 14.2262C72.0019 14.1706 72.0019 14.1144 71.9944 14.0588C72.0015 14.0135 72.0015 13.9673 71.9944 13.9219L71.461 10.0117C71.3841 9.54389 71.1783 9.10665 70.8668 8.74888L70.7753 8.64237L70.6078 8.475L61.374 0.5329L61.633 0.791571C61.4211 0.538393 61.1551 0.335885 60.8545 0.198963C60.5539 0.0620404 60.2263 -0.0058167 59.896 0.000397418H57.0923C56.6364 -0.00862213 56.1909 0.136114 55.8276 0.411202C55.4461 0.137771 54.9868 -0.00622479 54.5172 0.000397418H51.7135C51.3458 -0.00555964 50.9831 0.0855647 50.662 0.264571C50.3409 0.443577 50.0729 0.704109 49.8851 1.01978C49.5955 1.47065 49.4867 2.01388 49.5803 2.54126L49.9308 5.00604C49.6986 4.87462 49.4358 4.80643 49.1689 4.80827H35.5925C35.1054 4.81132 34.6295 4.95388 34.2211 5.21905C33.8262 5.46587 33.5092 5.81929 33.3069 6.23843L32.2555 5.34077C31.8417 4.95846 31.2955 4.75124 30.7318 4.76262H9.43008C8.94125 4.77151 8.46328 4.90787 8.04353 5.1582C7.46927 5.49382 7.04842 6.03953 6.87023 6.67967L0.10488 29.2736C-0.0215282 29.6459 -0.0339633 30.0474 0.0691674 30.4268C0.172298 30.8061 0.386324 31.1463 0.683903 31.4037C0.761443 31.4693 0.84286 31.5303 0.927705 31.5862C0.927705 31.5862 0.790548 31.4949 0.714361 31.4189L9.94819 39.3762C10.3388 39.7353 10.8495 39.936 11.3804 39.9391H32.8498C33.3401 39.9264 33.8184 39.7847 34.2364 39.5283C34.4728 39.3993 34.6843 39.2293 34.8611 39.0262L34.9373 38.9197L35.0592 38.7676L35.1506 38.6002L36.1563 39.4675C36.5413 39.8123 37.0409 40.002 37.5581 40H59.0731C59.5629 39.9837 60.0403 39.8423 60.4597 39.5892C60.6908 39.4523 60.9011 39.2832 61.0845 39.0871L61.1606 38.9806L61.2825 38.8285C61.3473 38.7322 61.4035 38.6304 61.4501 38.5241C61.4999 38.4319 61.5407 38.3351 61.572 38.2351L67.7431 17.6039V17.4213C67.7507 17.3505 67.7507 17.2791 67.7431 17.2083V17.0714C67.7505 17.026 67.7505 16.9798 67.7431 16.9344C67.75 16.8382 67.75 16.7416 67.7431 16.6453H69.724C69.8963 16.6611 70.0697 16.6611 70.242 16.6453H70.3792C70.4907 16.6121 70.5981 16.5661 70.6992 16.5084H70.8516L71.1258 16.2954L71.2477 16.2041L71.461 15.9302V15.839L71.6134 15.5803C71.6049 15.53 71.6049 15.4785 71.6134 15.4282C71.6053 15.4035 71.6053 15.3768 71.6134 15.3521C71.6458 15.2629 71.6713 15.1713 71.6896 15.0782C71.6825 15.0482 71.6825 15.0169 71.6896 14.9869C71.6822 14.9416 71.6822 14.8953 71.6896 14.85C71.6896 14.85 71.9944 14.2566 71.9944 14.2262Z" fill="black"/>
<path d="M31.3564 6.49713C31.4373 6.57017 31.4938 6.66621 31.5183 6.77231C31.5429 6.87841 31.5342 6.98946 31.4936 7.0905L24.7435 29.6692C24.6585 29.9157 24.4846 30.1218 24.2559 30.2474C24.0698 30.3717 23.8544 30.4451 23.6311 30.4604H2.17711C1.99389 30.4516 1.82031 30.3758 1.68951 30.2474C1.6117 30.1755 1.55709 30.0821 1.53266 29.9792C1.50823 29.8762 1.51511 29.7683 1.55238 29.6692L8.31773 7.0905C8.39568 6.84088 8.56411 6.62928 8.79008 6.49713C8.97925 6.38175 9.19362 6.31388 9.41481 6.29933H30.8688C31.0506 6.30108 31.2249 6.3718 31.3564 6.49713ZM20.157 25.12L24.1949 11.6397H12.8889L8.86625 25.12H20.157ZM51.8353 6.72534C51.9085 6.81028 52 6.87764 52.1029 6.92242C52.2058 6.9672 52.3174 6.98825 52.4296 6.98399H55.218C55.3242 6.98503 55.4288 6.95903 55.5222 6.90845C55.6155 6.85787 55.6943 6.78437 55.7513 6.69491C55.8008 6.62503 55.8358 6.54592 55.8541 6.46228C55.8724 6.37865 55.8737 6.2922 55.8579 6.20805L55.3094 2.19135C55.2572 2.00545 55.1634 1.83379 55.0352 1.68926C54.9619 1.60432 54.8705 1.53696 54.7676 1.49218C54.6647 1.4474 54.553 1.42636 54.4409 1.43061H51.6525C51.5463 1.42958 51.4416 1.45558 51.3483 1.50616C51.255 1.55674 51.1761 1.63023 51.1192 1.7197C51.0125 1.9327 50.9668 2.06963 51.0125 2.19135L51.5763 6.20805C51.6052 6.40363 51.696 6.58486 51.8353 6.72534ZM60.6882 2.16092C60.6359 1.97501 60.5421 1.80335 60.4139 1.65883C60.3438 1.5742 60.255 1.50686 60.1546 1.462C60.0542 1.41715 59.9448 1.39599 59.8349 1.40018H57.0312C56.9268 1.39721 56.8235 1.42251 56.7323 1.4734C56.6411 1.52429 56.5654 1.59889 56.5132 1.68926C56.4118 1.82424 56.3679 1.99379 56.3913 2.16092L56.955 6.17761C56.9904 6.37113 57.0802 6.55057 57.2141 6.69491C57.2886 6.77819 57.3803 6.84442 57.4829 6.88906C57.5855 6.9337 57.6964 6.9557 57.8083 6.95355H60.612C60.7162 6.95493 60.8188 6.92896 60.9097 6.87822C61.0007 6.82748 61.0767 6.75379 61.1301 6.66449C61.1831 6.59642 61.2201 6.51734 61.2386 6.4331C61.2571 6.34886 61.2564 6.26157 61.2367 6.17761L60.6882 2.16092ZM49.3821 8.24682L49.1078 6.2689H35.5924C35.3802 6.28058 35.1749 6.34889 34.9981 6.46669C34.8859 6.5278 34.7882 6.6125 34.7119 6.71494C34.6357 6.81739 34.5826 6.93513 34.5563 7.06007L33.4287 10.8333C33.3837 10.9276 33.3683 11.0334 33.3846 11.1366C33.401 11.2398 33.4482 11.3356 33.5201 11.4115C33.6486 11.5321 33.8163 11.6024 33.9925 11.6093H50.4183L46.3804 25.0896H30.0003C29.7891 25.0944 29.5834 25.1576 29.4061 25.2721C29.1906 25.4088 29.0332 25.6201 28.9642 25.8655L27.8214 29.6388C27.7841 29.7356 27.7743 29.8408 27.7931 29.9428C27.812 30.0449 27.8586 30.1397 27.928 30.2169C28.0525 30.3456 28.2215 30.4218 28.4004 30.4299H49.9154C50.1379 30.4108 50.3524 30.3377 50.5401 30.2169C50.7651 30.0907 50.9339 29.8842 51.0125 29.6388L57.1988 9.00756H50.2354C50.1249 9.00973 50.0152 8.98925 49.913 8.94738C49.8108 8.90551 49.7183 8.84312 49.6412 8.76411C49.5152 8.62614 49.4261 8.4587 49.3821 8.27725V8.24682Z" fill="white"/>
</g>
<defs>
<clipPath id="clip0_9_92">
<rect width="72" height="40" fill="white"/>
</clipPath>
</defs>
</svg>
