<svg width="44" height="44" viewBox="0 0 44 44" fill="none" xmlns="http://www.w3.org/2000/svg">
<g filter="url(#filter0_b_9_207)">
<rect x="0.75" y="0.75" width="42.5" height="42.5" rx="19.25" stroke="black" stroke-width="1.5"/>
<path d="M18.4 16.5H25.6C29 16.5 29.34 18.09 29.57 20.03L30.47 27.53C30.76 29.99 30 32 26.5 32H17.51C14 32 13.24 29.99 13.54 27.53L14.44 20.03C14.66 18.09 15 16.5 18.4 16.5Z" stroke="black" stroke-width="1.5" stroke-linecap="round" stroke-linejoin="round"/>
<path d="M18 18V14.5C18 13 19 12 20.5 12H23.5C25 12 26 13 26 14.5V18" stroke="black" stroke-width="1.5" stroke-linecap="round" stroke-linejoin="round"/>
<path d="M30.41 27.03H18" stroke="black" stroke-width="1.5" stroke-linecap="round" stroke-linejoin="round"/>
</g>
<defs>
<filter id="filter0_b_9_207" x="-50" y="-50" width="144" height="144" filterUnits="userSpaceOnUse" color-interpolation-filters="sRGB">
<feFlood flood-opacity="0" result="BackgroundImageFix"/>
<feGaussianBlur in="BackgroundImageFix" stdDeviation="25"/>
<feComposite in2="SourceAlpha" operator="in" result="effect1_backgroundBlur_9_207"/>
<feBlend mode="normal" in="SourceGraphic" in2="effect1_backgroundBlur_9_207" result="shape"/>
</filter>
</defs>
</svg>
