<svg width="461" height="256" viewBox="0 0 461 256" fill="none" xmlns="http://www.w3.org/2000/svg">
<g clip-path="url(#clip0_9_108)">
<path d="M460.764 91.0477C460.812 90.6918 460.812 90.3322 460.764 89.9763C460.81 89.6864 460.81 89.3907 460.764 89.1002L457.35 64.0749C456.858 61.0809 455.541 58.2826 453.548 55.9928L452.962 55.3112L451.89 54.24L392.794 3.41056L394.451 5.06605C393.095 3.44572 391.393 2.14966 389.469 1.27336C387.545 0.397059 385.448 -0.0372269 383.334 0.00254348H365.391C362.473 -0.0551816 359.622 0.87113 357.297 2.63169C354.855 0.881734 351.916 -0.0398386 348.91 0.00254348H330.966C328.613 -0.0355817 326.292 0.547614 324.237 1.69325C322.182 2.83889 320.467 4.5063 319.265 6.52659C317.411 9.41216 316.715 12.8888 317.314 16.2641L319.557 32.0387C318.071 31.1976 316.389 30.7612 314.681 30.7729H227.792C224.675 30.7924 221.629 31.7048 219.015 33.4019C216.488 34.9816 214.459 37.2435 213.164 39.9259L206.435 34.1809C203.787 31.7341 200.291 30.4079 196.684 30.4808H60.3525C57.224 30.5377 54.165 31.4104 51.4786 33.0125C47.8033 35.1604 45.1099 38.653 43.9695 42.7499L0.671232 187.351C-0.137781 189.734 -0.217365 192.303 0.442671 194.732C1.10271 197.159 2.47247 199.336 4.37698 200.984C4.87324 201.404 5.3943 201.794 5.93731 202.152C5.93731 202.152 5.05951 201.567 4.57191 201.081L63.6684 252.008C66.1683 254.306 69.4368 255.59 72.8346 255.61H210.239C213.377 255.529 216.438 254.622 219.113 252.981C220.626 252.156 221.98 251.068 223.111 249.768L223.599 249.086L224.379 248.113L224.964 247.041L231.4 252.592C233.864 254.799 237.062 256.013 240.372 256H378.068C381.203 255.896 384.258 254.991 386.942 253.371C388.421 252.495 389.767 251.412 390.941 250.157L391.428 249.476L392.208 248.502C392.623 247.886 392.982 247.235 393.281 246.554C393.599 245.964 393.86 245.345 394.061 244.705L433.556 112.665V111.496C433.604 111.043 433.604 110.586 433.556 110.133V109.257C433.603 108.966 433.603 108.671 433.556 108.38C433.6 107.764 433.6 107.146 433.556 106.53H446.234C447.336 106.631 448.446 106.631 449.549 106.53H450.427C451.141 106.317 451.828 106.023 452.475 105.654H453.45L455.205 104.291L455.985 103.706L457.35 101.953V101.37L458.326 99.7139C458.271 99.392 458.271 99.0624 458.326 98.7405C458.274 98.5824 458.274 98.4115 458.326 98.2534C458.533 97.6826 458.696 97.0963 458.813 96.5005C458.768 96.3085 458.768 96.1082 458.813 95.9162C458.766 95.6262 458.766 95.3299 458.813 95.04C458.813 95.04 460.764 91.2422 460.764 91.0477Z" fill="black"/>
<path d="M200.683 41.5816C201.201 42.0491 201.562 42.6637 201.719 43.3428C201.876 44.0218 201.821 44.7325 201.561 45.3792L158.36 189.883C157.816 191.46 156.703 192.78 155.24 193.583C154.049 194.379 152.67 194.849 151.241 194.947H13.9351C12.7625 194.89 11.6516 194.405 10.8144 193.583C10.3165 193.123 9.96695 192.525 9.8106 191.867C9.65425 191.208 9.69828 190.517 9.93681 189.883L53.235 45.3792C53.7339 43.7816 54.8119 42.4274 56.2581 41.5816C57.4688 40.8432 58.8407 40.4088 60.2564 40.3157H197.562C198.726 40.3269 199.841 40.7795 200.683 41.5816ZM129.007 160.768L154.849 74.4941H82.4908L56.7456 160.768H129.007ZM331.748 43.0422C332.216 43.5858 332.802 44.0169 333.46 44.3035C334.119 44.5901 334.833 44.7248 335.551 44.6975H353.397C354.077 44.7042 354.746 44.5378 355.344 44.2141C355.941 43.8904 356.445 43.42 356.81 42.8474C357.127 42.4002 357.351 41.8939 357.468 41.3586C357.585 40.8233 357.594 40.2701 357.492 39.7315L353.982 14.0246C353.648 12.8349 353.048 11.7362 352.227 10.8113C351.758 10.2676 351.173 9.83653 350.514 9.54994C349.856 9.26335 349.141 9.12869 348.424 9.15589H330.578C329.898 9.1493 329.228 9.3157 328.631 9.63941C328.034 9.96312 327.529 10.4335 327.165 11.0061C326.482 12.3693 326.189 13.2456 326.482 14.0246L330.09 39.7315C330.275 40.9832 330.856 42.1431 331.748 43.0422ZM388.406 13.8299C388.072 12.6401 387.471 11.5414 386.651 10.6165C386.202 10.0749 385.634 9.64389 384.991 9.35679C384.349 9.06975 383.649 8.93432 382.945 8.96114H365.002C364.333 8.94213 363.672 9.10405 363.089 9.42975C362.505 9.75544 362.02 10.2329 361.686 10.8113C361.037 11.6751 360.756 12.7602 360.906 13.8299L364.514 39.5367C364.74 40.7752 365.315 41.9236 366.172 42.8474C366.649 43.3804 367.236 43.8043 367.892 44.09C368.549 44.3757 369.259 44.5165 369.975 44.5027H387.919C388.586 44.5115 389.242 44.3453 389.824 44.0206C390.406 43.6959 390.893 43.2242 391.234 42.6527C391.574 42.2171 391.81 41.711 391.929 41.1718C392.047 40.6327 392.043 40.074 391.917 39.5367L388.406 13.8299ZM316.047 52.7796L314.292 40.1209H227.793C226.435 40.1957 225.121 40.6329 223.99 41.3868C223.272 41.7779 222.646 42.32 222.158 42.9756C221.67 43.6313 221.33 44.3848 221.162 45.1844L213.946 69.3331C213.658 69.9366 213.559 70.6138 213.663 71.2742C213.768 71.9347 214.07 72.5478 214.53 73.0336C215.353 73.8054 216.426 74.2553 217.554 74.2995H322.679L296.836 160.573H192.004C190.652 160.604 189.336 161.009 188.201 161.741C186.822 162.616 185.814 163.969 185.373 165.539L178.059 189.688C177.82 190.308 177.757 190.981 177.878 191.634C177.999 192.287 178.297 192.894 178.741 193.388C179.538 194.212 180.619 194.7 181.764 194.751H319.46C320.884 194.629 322.257 194.161 323.458 193.388C324.898 192.58 325.979 191.259 326.482 189.688L366.074 57.6484H321.508C320.801 57.6623 320.099 57.5312 319.445 57.2632C318.791 56.9953 318.199 56.596 317.706 56.0903C316.899 55.2073 316.329 54.1357 316.047 52.9744V52.7796Z" fill="white"/>
</g>
<defs>
<clipPath id="clip0_9_108">
<rect width="460.8" height="256" fill="white"/>
</clipPath>
</defs>
</svg>
